<svg xmlns="http://www.w3.org/2000/svg" xmlns:xlink="http://www.w3.org/1999/xlink" width="714" height="176" viewBox="0 0 714 176">
  <defs>
    <clipPath id="clip-Exord_Logo_red">
      <rect width="714" height="176"/>
    </clipPath>
  </defs>
  <g id="Exord_Logo_red" clip-path="url(#clip-Exord_Logo_red)">
    <g id="Gruppe_347" data-name="Gruppe 347" transform="translate(-36.27 -401.06)">
      <path id="Pfad_1" data-name="Pfad 1" d="M45.27,561.668v-157.8H150.55v20.065H69.171V470.6h78v20.281h-78v50.5h84.308v20.29Z" transform="translate(0 6.218)" fill="#ff215d"/>
      <path id="Pfad_2" data-name="Pfad 2" d="M81.263,561.668l58.164-82.277-53.2-75.525h28.627l31.337,47.114,7.443,11.5c2.254-3.61,5.186-7.887,7.661-11.5L192.4,403.867h27.73L167.156,479.16l58.385,82.508H196.687l-36.745-54.553L152.949,496.3c-2.479,3.829-4.954,7.658-7.436,11.044l-36.52,54.325Z" transform="translate(79.727 6.218)" fill="#ff215d"/>
      <path id="Pfad_3" data-name="Pfad 3" d="M178.346,561.668v-157.8h68.079c29.987,0,50.046,14.429,50.046,41.478,0,20.522-15.1,34.047-29.53,38.32,16,2.71,26.373,15.789,26.373,36.3v41.706H269.422v-37.2c0-22.534-8.568-29.977-30.434-29.977H202.243v67.175Zm23.9-87.469h39c19.843,0,30.662-8.79,30.662-25.242s-10.819-25.026-30.662-25.026h-39Z" transform="translate(294.771 6.218)" fill="#ff215d"/>
      <path id="Pfad_4" data-name="Pfad 4" d="M220.124,561.668v-157.8h50.5c52.074,0,84.537,24.569,84.537,78.9,0,47.8-27.952,78.9-81.151,78.9Zm23.9-20.29h27.724c36.067,0,58.614-17.355,58.614-58.614,0-37.42-18.712-58.832-59.289-58.832H244.024Z" transform="translate(387.312 6.218)" fill="#ff215d"/>
      <path id="Pfad_5" data-name="Pfad 5" d="M258.45,431.5c12.175,14.2,19.39,34.044,19.39,57.482,0,50.724-32.916,82.518-75.975,82.518-15.554,0-29.53-4.057-41.477-11.728l-12.626,16.68-15.78-11.272,13.748-18.03c-12.169-14.2-19.612-34.044-19.612-58.167,0-50.042,32.462-82.733,75.747-82.733,15.783,0,30.209,4.282,42.156,12.4l13.3-17.59,15.329,11.735Zm-98.063,96.715,70.333-92.43c-7.89-6.092-17.805-9.25-28.855-9.25-30.205,0-50.949,23.679-50.949,62.446C150.916,504.768,154.3,518.065,160.387,528.215Zm92.426-39.233c0-15.32-3.157-28.17-9.015-38.323l-70.339,92.2c7.89,5.636,17.583,8.571,28.4,8.571C232.3,551.434,252.814,528.215,252.814,488.982Z" transform="translate(179.083 0)" fill="#ff215d"/>
      <line id="Linie_1" data-name="Linie 1" x1="53.266" y2="69.538" transform="translate(307.426 495.605)" fill="none"/>
      <line id="Linie_2" data-name="Linie 2" x1="7.844" y2="10.185" transform="translate(297.475 567.953)" fill="none"/>
      <line id="Linie_3" data-name="Linie 3" x1="20.604" y2="27.277" transform="translate(323.23 549.105)" fill="none"/>
      <line id="Linie_4" data-name="Linie 4" x1="0.937" y1="0.702" transform="translate(321.123 579.192)" fill="none"/>
      <line id="Linie_5" data-name="Linie 5" x1="3.044" y1="2.224" transform="translate(302.275 565.729)" fill="none"/>
      <line id="Linie_6" data-name="Linie 6" x1="1.756" y1="1.288" transform="translate(323.23 576.382)" fill="none"/>
      <line id="Linie_7" data-name="Linie 7" x1="2.224" y1="1.639" transform="translate(305.202 563.505)" fill="none"/>
    </g>
  </g>
</svg>
